<svg width="246" height="340" xmlns="http://www.w3.org/2000/svg" xmlns:xlink="http://www.w3.org/1999/xlink" overflow="hidden"><defs><clipPath id="clip0"><rect x="0" y="0" width="246" height="340"/></clipPath></defs><g clip-path="url(#clip0)"><rect x="0" y="0" width="246" height="340.371" fill="#FFFFFF"/><text font-family="Aptos Display,Aptos Display_MSFontService,sans-serif" font-weight="400" font-size="20" transform="matrix(1 0 0 0.998156 117.326 164)">`</text><path d="M1.99998 42.2561C1.99998 20.0212 20.0582 1.99629 42.3342 1.99629L203.666 1.99629C225.942 1.99629 244 20.0212 244 42.2561L244 298.115C244 320.35 225.942 338.375 203.666 338.375L42.3342 338.375C20.0582 338.375 1.99998 320.35 1.99998 298.115Z" stroke="#000000" stroke-width="2.00271" stroke-miterlimit="8" fill="#FFFFFF" fill-rule="evenodd"/><path d="M33 76.3593C33 65.6094 41.7306 56.8948 52.5004 56.8948L193.5 56.8948C204.269 56.8948 213 65.6094 213 76.3593L213 154.215C213 164.965 204.269 173.679 193.5 173.679L52.5004 173.679C41.7306 173.679 33 164.965 33 154.215Z" stroke="#000000" stroke-width="2.00271" stroke-miterlimit="8" fill="#FFFFFF" fill-rule="evenodd"/><path d="M128.948 191.579 128.948 327.328" stroke="#000000" stroke-width="1.33514" stroke-linejoin="round" stroke-miterlimit="10" fill="none" fill-rule="evenodd"/><path d="M31.9241 237.051 214.076 237.051" stroke="#000000" stroke-width="1.33514" stroke-linejoin="round" stroke-miterlimit="10" fill="none" fill-rule="evenodd"/><path d="M31.9241 281.856 214.076 281.856" stroke="#000000" stroke-width="1.33514" stroke-linejoin="round" stroke-miterlimit="10" fill="none" fill-rule="evenodd"/><path d="M32.5917 191.579 32.5917 327.328" stroke="#000000" stroke-width="1.33514" stroke-linejoin="round" stroke-miterlimit="10" fill="none" fill-rule="evenodd"/><path d="M213.408 191.579 213.408 327.328" stroke="#000000" stroke-width="1.33514" stroke-linejoin="round" stroke-miterlimit="10" fill="none" fill-rule="evenodd"/><path d="M31.9241 192.245 214.076 192.245" stroke="#000000" stroke-width="1.33514" stroke-linejoin="round" stroke-miterlimit="10" fill="none" fill-rule="evenodd"/><path d="M31.9241 326.661 214.076 326.661" stroke="#000000" stroke-width="1.33514" stroke-linejoin="round" stroke-miterlimit="10" fill="none" fill-rule="evenodd"/><text font-family="Aptos,Aptos_MSFontService,sans-serif" font-weight="400" font-size="16" transform="matrix(1 0 0 0.998156 138.562 220)">{A}</text><text font-family="Aptos,Aptos_MSFontService,sans-serif" font-weight="400" font-size="16" transform="matrix(1 0 0 0.998156 42.2047 220)">Aesthetics</text><text font-family="Aptos,Aptos_MSFontService,sans-serif" font-weight="400" font-size="16" transform="matrix(1 0 0 0.998156 138.562 264)">{S}</text><text font-family="Aptos,Aptos_MSFontService,sans-serif" font-weight="400" font-size="16" transform="matrix(1 0 0 0.998156 42.2047 264)">Size</text><text font-family="Aptos,Aptos_MSFontService,sans-serif" font-weight="400" font-size="16" transform="matrix(1 0 0 0.998156 138.562 309)">{P}</text><text font-family="Aptos,Aptos_MSFontService,sans-serif" font-weight="400" font-size="16" transform="matrix(1 0 0 0.998156 42.2047 309)">Power</text><g><g><g><path d="M79.5017 29.4246 83.3141 29.4246C86.8811 29.4246 89.7829 26.5228 89.7829 22.9558L89.7829 6.46881C89.7829 2.90181 86.8811 0 83.3141 0L79.5017 0C75.9345 0 73.0324 2.90181 73.0324 6.46881L73.0324 12.4072 56.9335 12.4072C55.9051 8.38474 52.2507 5.40173 47.9122 5.40173 43.5735 5.40173 39.9189 8.38474 38.8905 12.4072L22.7906 12.4072 22.7906 6.46881C22.7906 2.90181 19.8888 0 16.3223 0L12.5096 0C8.94236 0 6.04003 2.90181 6.04003 6.46881L6.04003 22.9558C6.04003 26.5228 8.94236 29.4246 12.5099 29.4246L16.3223 29.4246C19.8888 29.4246 22.7906 26.5228 22.7906 22.9558L22.7906 17.0174 38.8905 17.0174C39.7304 20.3024 42.3217 22.8935 45.607 23.7334L45.607 66.7664C42.6427 67.7382 40.4949 70.5296 40.4949 73.8149L40.4949 78.805 22.7906 78.805 22.7906 72.8667C22.7906 69.2997 19.8888 66.3979 16.3223 66.3979L12.5096 66.3979C8.9421 66.3979 6.03978 69.2997 6.03978 72.8667L6.03978 89.3536C6.03978 92.9206 8.9421 95.8224 12.5096 95.8224L16.322 95.8224C19.8885 95.8224 22.7903 92.9206 22.7903 89.3536L22.7903 83.4153 40.4947 83.4153 40.4947 88.4057C40.4947 92.4952 43.8222 95.8222 47.912 95.8222 52.0013 95.8222 55.3283 92.4952 55.3283 88.4057L55.3283 83.4153 73.0321 83.4153 73.0321 89.3536C73.0321 92.9206 75.9342 95.8224 79.5015 95.8224L83.3139 95.8224C86.8809 95.8224 89.7827 92.9206 89.7827 89.3536L89.7827 72.8667C89.7827 69.2997 86.8809 66.3979 83.3139 66.3979L79.5015 66.3979C75.9342 66.3979 73.0321 69.2997 73.0321 72.8667L73.0321 78.805 55.3283 78.805 55.3283 73.8149C55.3283 70.5302 53.181 67.739 50.2172 66.767L50.2172 23.7337C53.5022 22.8938 56.0933 20.3024 56.9332 17.0177L73.0321 17.0177 73.0321 22.956C73.0324 26.5228 75.9345 29.4246 79.5017 29.4246ZM18.18 22.9558C18.18 23.9803 17.3468 24.8141 16.3223 24.8141L12.5096 24.8141C11.4845 24.8141 10.6503 23.9803 10.6503 22.9558L10.6503 6.46881C10.6503 5.44425 11.4843 4.61052 12.5096 4.61052L16.322 4.61052C17.3466 4.61052 18.1798 5.44425 18.1798 6.46881L18.1798 22.9558ZM18.18 89.3541C18.18 90.3787 17.3468 91.2124 16.3223 91.2124L12.5096 91.2124C11.4845 91.2124 10.6503 90.3787 10.6503 89.3541L10.6503 72.8672C10.6503 71.8426 11.4843 71.0089 12.5096 71.0089L16.322 71.0089C17.3466 71.0089 18.1798 71.8426 18.1798 72.8672L18.1798 89.3541ZM77.6429 72.8669C77.6429 71.8424 78.4766 71.0086 79.5017 71.0086L83.3141 71.0086C84.3387 71.0086 85.1724 71.8424 85.1724 72.8669L85.1724 89.3539C85.1724 90.3784 84.3389 91.2122 83.3141 91.2122L79.5017 91.2122C78.4769 91.2122 77.6429 90.3784 77.6429 89.3539L77.6429 72.8669ZM50.718 88.4062C50.718 89.9535 49.4593 91.2122 47.9122 91.2122L47.9117 91.2122C46.3644 91.2122 45.1055 89.9535 45.1055 88.4062L45.1055 73.8149C45.1055 72.2676 46.3646 71.0086 47.9122 71.0086 49.4593 71.0086 50.718 72.2676 50.718 73.8149L50.718 88.4062ZM48.0754 19.4041C48.0214 19.4003 47.9673 19.3959 47.9122 19.3959 47.8572 19.3959 47.8031 19.4003 47.7491 19.4041 45.233 19.317 43.2118 17.249 43.2118 14.7124 43.2118 12.1208 45.3204 10.0123 47.9125 10.0123 50.5041 10.0123 52.6124 12.1205 52.6124 14.7124 52.6122 17.249 50.591 19.317 48.0754 19.4041ZM77.6429 6.46881C77.6429 5.44425 78.4766 4.61052 79.5017 4.61052L83.3141 4.61052C84.3387 4.61052 85.1724 5.44425 85.1724 6.46881L85.1724 22.9558C85.1724 23.9803 84.3389 24.8141 83.3141 24.8141L79.5017 24.8141C78.4769 24.8141 77.6429 23.9803 77.6429 22.9558L77.6429 6.46881Z" transform="matrix(1.00185 0 0 1 70 67.8745)"/></g></g></g><text font-family="Aptos,Aptos_MSFontService,sans-serif" font-weight="400" font-size="24" transform="matrix(1 0 0 0.998156 59.283 40)">{N}</text><text font-family="Aptos,Aptos_MSFontService,sans-serif" font-weight="400" font-size="24" transform="matrix(1 0 0 0.998156 157.216 40)">${C}</text></g></svg>